# xmcd
#
# Track frame offsets:
#	150
#	12643
#	29041
#	45558
#	61670
#	78702
#	92417
#	109508
#	127767
#	142225
#	159488
#	176684
#	177776
#	178521
#	179237
#	180079
#	180907
#	182114
#	182801
#	183455
#	184132
#	184929
#	185641
#	186375
#	187130
#
# Disc length: 2503 seconds
#
# Revision: 1
# Processed by: cddbd v1.5.2PL0 Copyright (c) Steve Scherf et al.
# Submitted via: audiograbber 1.83.01
#
DISCID=6409c519
DTITLE=Various Artist - CDX Volume 660 (April 23, 2018)
DYEAR=2018
DGENRE=Country
TTITLE0=Rodney Atkins - Caught Up In The Country
TTITLE1=Keith Urban (featuring Julia Michaels) - Coming Home
TTITLE2=Home Hart - Buckle Up
TTITLE3=Smith and Wesley - Hook Line And Sinker
TTITLE4=Sara Spicer - Jump
TTITLE5=Shane Owens - Lie
TTITLE6=Lefroy - Mexican Getaway
TTITLE7=Devin Dawson - Asking For A  Friend
TTITLE8=Rachel Steele - Here To Get My Stuff
TTITLE9=Richard Schroder - Wildest Dreams
TTITLE10=Wild Bill And The Flying GoCarts - Remember Us 
TTITLE11=Ricky Cook - Radio Liner - My New Single
TTITLE12=Ricky Cook - Radio Liner - Today's Best Country
TTITLE13=Ricky Cook - Radio Liner - Hometown Country
TTITLE14=Ricky Cook - Radio Liner - Super Country
TTITLE15=Ricky Cook - Radio Liner - Today's Hot Country
TTITLE16=Frontmen - Radio Liner - Our New Single
TTITLE17=Frontmen - Radio Liner - Today's Best Country
TTITLE18=Frontmen - Radio Liner - Kickin' Country
TTITLE19=Frontmen - Radio Liner - Hometown Country
TTITLE20=Frontmen - Radio Liner - Super Country
TTITLE21=Frontmen - Radio Liner - Today's Hot Country
TTITLE22=Frontmen - Radio Liner - Best In Today's Country
TTITLE23=Frontmen - Radio Liner - More Of The Country You Love
TTITLE24=Frontmen - Radio Liner - Howlin' Country
EXTD=
EXTT0=
EXTT1=
EXTT2=
EXTT3=
EXTT4=
EXTT5=
EXTT6=
EXTT7=
EXTT8=
EXTT9=
EXTT10=
EXTT11=
EXTT12=
EXTT13=
EXTT14=
EXTT15=
EXTT16=
EXTT17=
EXTT18=
EXTT19=
EXTT20=
EXTT21=
EXTT22=
EXTT23=
EXTT24=
PLAYORDER=
